<?xml version="1.0" encoding="utf-8"?>
<!-- Generator: Adobe Illustrator 23.0.3, SVG Export Plug-In . SVG Version: 6.00 Build 0)  -->
<svg version="1.1" id="el_CJFUAsHcI" xmlns="http://www.w3.org/2000/svg" xmlns:xlink="http://www.w3.org/1999/xlink" x="0px"
	 y="0px" viewBox="0 0 478 101" style="enable-background:new 0 0 478 101;" xml:space="preserve">
<style type="text/css">
	.st0{fill:#FFFFFF;}
</style>
<g id="el_x-g6VjS5Cu">
	<path id="el_BrXTp1P-dx" class="st0" d="M120,56.7l-7.2-12.6h-4.7v12.6h-9.3V18.1h14.4c9.7,0,15.6,5.3,15.6,13.3
		c0,5.2-2.5,9.1-7,11.2l8.6,14.2H120V56.7z M108.1,35.9h6.4c3.3,0,4.6-2.5,4.6-4.6s-1.3-4.6-4.6-4.6h-6.4V35.9z"/>
	<path id="el_t-S7ucNmSz" class="st0" d="M175.9,48.1v8.7h-28.4V18.1h28.1v8.7h-18.8v6.3h14.7v8.1h-14.7V48h19.1V48.1z"/>
	<path id="el_dTwN5droRa" class="st0" d="M219.2,30.1c-1.8-2.2-5.1-3.6-8.1-3.6c-6.4,0-10.4,4.6-10.4,10.9c0,6.7,4.4,10.8,10.4,10.8
		c3.7,0,7.2-1.9,8.8-4.5l9.4,2.4c-3.2,6.8-10.1,11.4-18.2,11.4c-11.1,0-20-8.4-20-20.1c0-11.6,8.9-20.1,20-20.1
		c7.6,0,14.1,4.1,17.6,10.3L219.2,30.1z"/>
	<path id="el_RouRnsv4dY" class="st0" d="M263.5,17.3c11.1,0,20.1,8.4,20.1,20.1c0,11.6-9,20.1-20.1,20.1s-20-8.4-20-20.1
		C243.4,25.8,252.4,17.3,263.5,17.3z M263.5,48.4c6.3,0,10.4-4.5,10.4-10.9c0-6.5-4.1-10.9-10.4-10.9c-6.2,0-10.4,4.4-10.4,10.9
		C253.1,43.9,257.2,48.4,263.5,48.4z"/>
	<path id="el_o3z5r0lOpb" class="st0" d="M334.6,18.1l-14.9,38.6h-10l-14.9-38.6H305l7.5,21.3c1.5,4.3,2.2,7.1,2.2,7.1h0.1
		c0.1,0,0.7-2.8,2.2-7.1l7.5-21.3C324.5,18.1,334.6,18.1,334.6,18.1z"/>
	<path id="el_PeXiYraBo8" class="st0" d="M377.8,48.1v8.7h-28.4V18.1h28.1v8.7h-18.8v6.3h14.7v8.1h-14.7V48h19.1V48.1z"/>
	<path id="el_NY0gv3QnL4" class="st0" d="M418.2,56.7L411,44.2h-4.7v12.6H397V18.1h14.4c9.7,0,15.6,5.3,15.6,13.3
		c0,5.2-2.5,9.1-7,11.2l8.6,14.2h-10.4V56.7z M406.3,35.9h6.4c3.3,0,4.6-2.5,4.6-4.6s-1.3-4.6-4.6-4.6h-6.4V35.9z"/>
	<path id="el_b9Y2WKOfLN" class="st0" d="M478.4,18.1l-14.8,21.5v17.1h-9.2V39.6l-14.8-21.5H450l7,10.3c1.1,1.7,1.9,2.8,2,2.8h0.1
		c0.1,0,0.9-1.2,2-2.8l7-10.3C468.1,18.1,478.4,18.1,478.4,18.1z"/>
</g>
<g id="el_H0WazDdJ7c_an_liegV7rtO">
	<g id="el_H0WazDdJ7c">
		<path id="el_sgBHH81afp" class="st0" d="M123.6,71.8l-6.3,18.7h-1.9l-3.1-9.8c-0.8-2.6-1-3.6-1-3.6l0,0c0,0-0.2,1-1,3.6l-3.1,9.8
			h-1.9L99,71.8h2.3l4.2,12.6c0.5,1.6,0.8,2.7,0.8,2.7l0,0c0,0,0.2-1.1,0.8-2.7l3.3-10.1h1.9l3.3,10.1c0.6,1.6,0.8,2.7,0.8,2.7l0,0
			c0,0,0.3-1.1,0.8-2.7l4.2-12.6H123.6z"/>
		<path id="el_I1eA4j3uXK" class="st0" d="M139.5,71.4c5.4,0,9.7,4.1,9.7,9.7s-4.3,9.7-9.7,9.7s-9.7-4.1-9.7-9.7
			S134.1,71.4,139.5,71.4z M139.5,88.7c4.2,0,7.4-3.1,7.4-7.6s-3.2-7.6-7.4-7.6s-7.4,3-7.4,7.6C132,85.6,135.2,88.7,139.5,88.7z"/>
		<path id="el_t7ujhXlk7N" class="st0" d="M168.7,90.5l-4.2-7c-0.3,0-0.6,0-1,0H160v7h-2.2V71.8h5.7c4.4,0,7,2.3,7,5.9
			c0,2.7-1.4,4.6-3.9,5.4l4.5,7.4C171.1,90.5,168.7,90.5,168.7,90.5z M163.8,81.6c3,0,4.5-1.6,4.5-3.9c0-2.4-1.7-3.8-4.5-3.8h-3.7
			v7.7C160.1,81.6,163.8,81.6,163.8,81.6z"/>
		<path id="el_wu_scDw6N0" class="st0" d="M192.4,88.4v2.1h-12.2V71.8h2.2v16.6H192.4z"/>
		<path id="el_xevvOYBjGq" class="st0" d="M208.6,71.8c5.3,0,9.6,3.8,9.6,9.4c0,5.5-4.3,9.2-9.5,9.2h-8V71.8H208.6z M208.7,88.4
			c3.9,0,7.2-2.7,7.2-7.2s-3.4-7.4-7.4-7.4h-5.7v14.5L208.7,88.4L208.7,88.4z"/>
		<path id="el_u0u4NEsEeEa" class="st0" d="M249.1,71.8l-6.3,18.7h-1.9l-3.1-9.8c-0.8-2.6-1-3.6-1-3.6l0,0c0,0-0.2,1-1,3.6l-3.1,9.8
			h-1.9l-6.3-18.7h2.3l4.2,12.6c0.5,1.6,0.8,2.7,0.8,2.7l0,0c0,0,0.2-1.1,0.8-2.7l3.3-10.1h1.9l3.3,10.1c0.6,1.6,0.8,2.7,0.8,2.7
			l0,0c0,0,0.3-1.1,0.8-2.7l4.2-12.6H249.1z"/>
		<path id="el_iVosRQ7wyrd" class="st0" d="M257.2,90.5V71.8h2.2v18.7H257.2z"/>
		<path id="el_gl3ZUbBiphu" class="st0" d="M277.5,71.8c5.3,0,9.6,3.8,9.6,9.4c0,5.5-4.3,9.2-9.5,9.2h-8V71.8H277.5z M277.7,88.4
			c3.9,0,7.2-2.7,7.2-7.2s-3.4-7.4-7.4-7.4h-5.7v14.5L277.7,88.4L277.7,88.4z"/>
		<path id="el_T-P3aWiGi4_" class="st0" d="M308.5,88.4v2.1h-12.6V71.8h12.4v2.1H298v5.8h8.2v1.9H298v6.8
			C298,88.4,308.5,88.4,308.5,88.4z"/>
	</g>
</g>
<g id="el_0bADEcqbsOs_an_nqFbDN3PY">
	<path id="el_0bADEcqbsOs" class="st0" d="M41.5,0L0,18.4V46c0,25.5,17.8,49.3,41.5,55.1C65.2,95.3,83,71.5,83,46V18.4L41.5,0z
		 M68,50.6c0,4.8-3.2,9.6-8,9.6H50v8c0,4.8-4.2,8.8-9,8.8s-9-4-9-8.8v-8h-7.3c-4.8,0-9.7-4.7-9.7-9.6l0,0c0-4.8,4.9-8.4,9.7-8.4H32
		V33c0-4.9,4.1-8.8,9-8.8s9,3.9,9,8.8v5.7l-9,3.1l-9,3.1v5.7c0,4.9,4.1,8.8,9,8.8s9-3.9,9-8.8v-8.4h10C64.8,42.1,68,45.7,68,50.6
		L68,50.6z"/>
</g>
</svg>
